<?xml version="1.0" encoding="UTF-8"?>
<svg width="46px" height="48px" viewBox="0 0 46 48" version="1.1" xmlns="http://www.w3.org/2000/svg" xmlns:xlink="http://www.w3.org/1999/xlink">
    <!-- Generator: sketchtool 53.2 (72643) - https://sketchapp.com -->
    <title>91F519C1-E77E-4A73-A20E-9EAF7FCC61F5</title>
    <desc>Created with sketchtool.</desc>
    <g id="Workspace" stroke="none" stroke-width="1" fill="none" fill-rule="evenodd">
        <g id="2-1-1-Address" transform="translate(-837.000000, -849.000000)" fill="#23C0F5" fill-rule="nonzero">
            <g id="Group-7" transform="translate(760.000000, 814.000000)">
                <g id="criminal" transform="translate(77.000000, 35.000000)">
                    <path d="M21.3534676,27.2656587 L24.6465324,27.2656587 C25.0727785,27.2656587 25.4183445,26.9175292 25.4183445,26.488121 C25.4183445,26.0587127 25.0727785,25.7105832 24.6465324,25.7105832 L21.3534676,25.7105832 C20.9272215,25.7105832 20.5816555,26.0587127 20.5816555,26.488121 C20.5816555,26.9175292 20.9272215,27.2656587 21.3534676,27.2656587 Z" id="Shape"></path>
                    <path d="M42.842774,35.1991361 C42.8206488,35.1879395 42.797906,35.1778834 42.7748546,35.1688639 L36.9281208,32.9021857 C36.3167427,32.6651922 35.8472752,32.1700562 35.6400179,31.5439827 L35.4056957,30.8356976 C36.7149978,28.9421339 37.2193512,27.0834039 35.9911409,25.2273693 C35.4352304,24.3872138 34.7510962,23.7819784 33.9078658,23.3833607 C34.2749396,22.0103326 34.4742729,20.5451404 34.4742729,19.0237581 L34.4742729,18.9719222 L34.5257271,18.9719222 C35.4052841,18.9719222 36.1208054,18.2510929 36.1208054,17.3650108 L36.1208054,15.7062635 C36.1208054,15.1021685 35.7878971,14.5754125 35.2975391,14.3009935 L35.2975391,12.3887689 C35.2975391,5.55752916 29.7809351,0 23,0 C16.2190649,0 10.7024609,5.55752916 10.7024609,12.3887689 L10.7024609,14.3009935 C10.2121029,14.5754125 9.87919463,15.1021685 9.87919463,15.7062635 L9.87919463,17.3650108 C9.87919463,18.2510929 10.5947159,18.9719222 11.4742729,18.9719222 L11.5257271,18.9719222 L11.5257271,19.0237581 C11.5257271,20.5451404 11.7250604,22.0103326 12.0921342,23.3834644 C11.2488009,23.7820821 10.5647696,24.3873175 10.0088591,25.227473 C8.78064877,27.0834039 9.28500224,28.9421339 10.5943043,30.8358013 L10.3599821,31.5440864 C10.1528277,32.1702635 9.68336018,32.6652959 9.07187919,32.9022894 L3.22514541,35.1688639 C3.20199105,35.1777797 3.17935123,35.1879395 3.15722595,35.1991361 C1.20978971,36.1800778 0,38.1520173 0,40.3455032 L0,45.5637149 C0,46.9070929 1.08485906,48 2.41834452,48 L23,48 L43.5816555,48 C44.9151409,48 46,46.9070929 46,45.5637149 L46,40.3455032 C46,38.1520173 44.7902103,36.1800778 42.842774,35.1991361 Z M34.7068456,26.0900216 C35.1573781,26.7708337 35.525481,27.7880605 34.3626174,29.6256415 C33.7587517,30.5798359 32.8521298,31.5944708 31.8155347,32.6557581 C31.4402282,32.5479395 31.181311,32.2061339 31.181311,31.8092786 L31.181311,28.9762419 C31.181311,28.9408898 31.1781208,28.9063672 31.1735928,28.8722592 C32.1012081,27.7186004 32.867566,26.3702462 33.4275928,24.8822462 C33.9340045,25.158013 34.3480045,25.5478186 34.7068456,26.0900216 Z M13.4142998,22.2894168 L13.6044743,22.2894168 C14.1482416,22.2894168 14.6592841,22.5027732 15.0458076,22.8920605 C15.7218121,23.5730799 16.6207159,23.9481641 17.5767338,23.9481641 L28.4232662,23.9481641 C29.3792841,23.9481641 30.278085,23.5730799 30.9561477,22.889987 C31.340613,22.5026695 31.8517584,22.2894168 32.3955257,22.2894168 L32.5857002,22.2894168 C31.4414631,27.5989633 27.5778747,31.5161987 23,31.5161987 C18.4221253,31.5161987 14.5585369,27.5989633 13.4142998,22.2894168 Z M15.68034,33.5066955 C16.1064832,33.0648467 16.3624161,32.4642765 16.3624161,31.8093823 L16.3624161,30.4763715 C18.237302,32.1098229 20.5286577,33.0712743 23,33.0712743 C25.4713423,33.0712743 27.762698,32.1098229 29.6375839,30.4763715 L29.6375839,31.8092786 C29.6375839,32.4641728 29.8934139,33.0646393 30.319557,33.5064881 C28.0745101,34.9188078 25.5559329,35.663067 23,35.663067 C20.44417,35.663067 17.925387,34.9189114 15.68034,33.5066955 Z M23,37.2181425 C24.7616868,37.2181425 26.5051588,36.9001814 28.1689799,36.288 C26.06183,38.4446825 24.0560447,40.786108 23,43.4087948 C21.9439553,40.786108 19.9380671,38.4445788 17.8310201,36.2878963 C19.4948412,36.9001814 21.2383132,37.2181425 23,37.2181425 Z M34.5771812,17.3650108 C34.5771812,17.3936242 34.5541298,17.4168467 34.5257271,17.4168467 L32.8277405,17.4168467 L32.8277405,15.6544276 L34.5257271,15.6544276 C34.5541298,15.6544276 34.5771812,15.6776501 34.5771812,15.7062635 L34.5771812,17.3650108 Z M28.7114094,17.4168467 L28.7114094,15.6544276 L31.2841163,15.6544276 L31.2841163,17.4168467 L28.7114094,17.4168467 Z M23.7718121,17.4168467 L23.7718121,15.6544276 L27.1677852,15.6544276 L27.1677852,17.4168467 L23.7718121,17.4168467 Z M18.8322148,17.4168467 L18.8322148,15.6544276 L22.2281879,15.6544276 L22.2281879,17.4168467 L18.8322148,17.4168467 Z M14.7158837,17.4168467 L14.7158837,15.6544276 L17.2885906,15.6544276 L17.2885906,17.4168467 L14.7158837,17.4168467 Z M29.6375839,14.0993521 L26.2416107,14.0993521 L26.2416107,12.3887689 C26.2416107,9.23414255 25.9785772,6.260527 25.5010828,4.01541253 C25.3367383,3.24264363 25.1554139,2.5865054 24.9547427,2.04243629 C25.9276376,2.53912743 26.8287025,3.40571922 27.5900179,4.59877322 C28.910434,6.66806048 29.6375839,9.43453996 29.6375839,12.3887689 L29.6375839,14.0993521 Z M21.3020134,14.0993521 L21.3020134,12.3887689 C21.3020134,9.5747041 21.5204877,6.87747732 21.9171991,4.79398704 C22.3160716,2.69919654 22.7777181,1.8500216 23,1.60774082 C23.2222819,1.8500216 23.6839284,2.69919654 24.0828009,4.79398704 C24.4795123,6.87747732 24.6979866,9.5747041 24.6979866,12.3887689 L24.6979866,14.0993521 L21.3020134,14.0993521 Z M21.0452573,2.04253996 C20.8444832,2.58660907 20.6632617,3.2427473 20.4989172,4.0155162 C20.0214228,6.260527 19.7583893,9.23414255 19.7583893,12.3887689 L19.7583893,14.0993521 L16.3624161,14.0993521 L16.3624161,12.3887689 C16.3624161,9.43453996 17.089566,6.66806048 18.4099821,4.59887689 C19.1712975,3.40571922 20.0723624,2.5392311 21.0452573,2.04253996 Z M33.753915,12.3887689 L33.753915,14.0993521 L31.1812081,14.0993521 L31.1812081,12.3887689 C31.1812081,9.14000864 30.3669978,6.07485097 28.8885145,3.75799568 C28.7182013,3.49104104 28.5408904,3.23818575 28.3579195,2.99808207 C31.5802864,4.87122246 33.753915,8.37905832 33.753915,12.3887689 Z M17.6421834,2.9979784 C17.4591096,3.23818575 17.2819016,3.49104104 17.1115884,3.75789201 C15.6330022,6.07485097 14.8187919,9.14000864 14.8187919,12.3887689 L14.8187919,14.0993521 L12.246085,14.0993521 L12.246085,12.3887689 C12.246085,8.37905832 14.4197136,4.87122246 17.6421834,2.9979784 Z M11.4228188,17.3650108 L11.4228188,15.7062635 C11.4228188,15.6776501 11.4458702,15.6544276 11.4742729,15.6544276 L13.1722595,15.6544276 L13.1722595,17.4168467 L11.4742729,17.4168467 C11.4458702,17.4168467 11.4228188,17.3936242 11.4228188,17.3650108 Z M18.1144295,18.9719222 C18.1132975,18.9891317 18.1118568,19.0062376 18.1118568,19.0237581 L18.1118568,19.8531317 C18.1118568,20.28254 18.4574228,20.6306695 18.8836689,20.6306695 C19.309915,20.6306695 19.655481,20.28254 19.655481,19.8531317 L19.655481,19.0237581 C19.655481,19.0062376 19.6540403,18.9891317 19.6529083,18.9719222 L26.3470917,18.9719222 C26.3459597,18.9891317 26.344519,19.0062376 26.344519,19.0237581 L26.344519,19.8531317 C26.344519,20.28254 26.690085,20.6306695 27.1163311,20.6306695 C27.5425772,20.6306695 27.8881432,20.28254 27.8881432,19.8531317 L27.8881432,19.0237581 C27.8881432,19.0062376 27.8867025,18.9891317 27.8855705,18.9719222 L32.9306488,18.9719222 L32.9306488,19.0237581 C32.9306488,19.6040086 32.8983356,20.1749287 32.8371051,20.7343413 L32.3955257,20.7343413 C31.4395078,20.7343413 30.5407069,21.1094255 29.8626443,21.7925184 C29.478179,22.1798359 28.9670336,22.3930886 28.4232662,22.3930886 L17.5767338,22.3930886 C17.0329664,22.3930886 16.5219239,22.1797322 16.1354004,21.7904449 C15.459396,21.1094255 14.5604922,20.7343413 13.6044743,20.7343413 L13.1627919,20.7343413 C13.1016644,20.1749287 13.0692483,19.6040086 13.0692483,19.0237581 L13.0692483,18.9719222 L18.1144295,18.9719222 Z M11.2931544,26.0900216 C11.6519955,25.5478186 12.0659955,25.158013 12.5725101,24.8822462 C13.1325369,26.3702462 13.8988949,27.7186004 14.8265101,28.8722592 C14.8219821,28.9063672 14.8187919,28.9408898 14.8187919,28.9762419 L14.8187919,31.8093823 C14.8187919,32.2062376 14.5598747,32.5480432 14.1845682,32.6558618 C13.1479732,31.5945745 12.2412483,30.5799395 11.6374855,29.6257451 C10.4746219,27.7880605 10.8426219,26.7709374 11.2931544,26.0900216 Z M1.54362416,45.5637149 L1.54362416,40.3455032 C1.54362416,38.7569417 2.41330201,37.3274125 3.81573602,36.6062721 L9.62624609,34.3535896 C10.5871007,33.9812009 11.3416242,33.2346609 11.7312349,32.2845097 C12.6414586,33.3347041 13.7232304,34.3978575 14.8238345,35.479257 C18.091481,38.6898661 21.7684966,42.3039654 22.1875391,46.4450281 L9.77628635,46.4450281 L9.77628635,43.9050713 C9.77628635,43.4756631 9.43072036,43.1275335 9.00447427,43.1275335 C8.57822819,43.1275335 8.23266219,43.4756631 8.23266219,43.9050713 L8.23266219,46.4449244 L2.41834452,46.4449244 C1.93601342,46.4449244 1.54362416,46.0496242 1.54362416,45.5637149 Z M44.4563758,45.5637149 C44.4563758,46.0496242 44.0639866,46.4449244 43.5816555,46.4449244 L37.7673378,46.4449244 L37.7673378,43.9049676 C37.7673378,43.4755594 37.4217718,43.1274298 36.9955257,43.1274298 C36.5692796,43.1274298 36.2237136,43.4755594 36.2237136,43.9049676 L36.2237136,46.4449244 L23.8124609,46.4449244 C24.2315034,42.3038618 27.9084161,38.6897624 31.1761655,35.4791533 C32.2767696,34.3977538 33.3585414,33.3346004 34.2687651,32.284406 C34.6583758,33.2345572 35.4128993,33.9810972 36.3737539,34.353486 L42.184264,36.6061685 C43.586698,37.3274125 44.4563758,38.756838 44.4563758,40.3455032 L44.4563758,45.5637149 Z" id="Shape"></path>
                </g>
            </g>
        </g>
    </g>
</svg>