<svg version="1.1" id="Layer_1" xmlns="http://www.w3.org/2000/svg" xmlns:xlink="http://www.w3.org/1999/xlink" x="0px" y="0px"
	 width="100%" viewBox="0 0 108 144" enable-background="new 0 0 108 144" xml:space="preserve">
<path fill="#212B36" opacity="1.000000" stroke="none" 
	d="
M109.000000,75.000000 
	C109.000000,85.020897 109.000000,95.041786 108.675507,105.652466 
	C108.011971,106.593697 107.512489,106.885674 107.356995,107.305168 
	C100.966591,124.545334 89.252785,136.498215 72.048096,143.074203 
	C71.238327,143.383698 70.677017,144.343201 70.000000,145.000000 
	C60.312439,145.000000 50.624878,145.000000 40.347534,144.675507 
	C39.406109,144.011887 39.113911,143.511703 38.694263,143.356842 
	C21.434311,136.987228 9.453170,125.302948 2.925820,108.049217 
	C2.619385,107.239212 1.656934,106.677399 0.999999,106.000000 
	C1.000000,96.312439 1.000000,86.624878 1.323625,76.351753 
	C2.779367,73.585503 3.982289,71.438263 5.031139,69.218231 
	C9.201457,60.391209 14.349522,52.260448 22.837345,47.030548 
	C24.969290,45.716915 28.721916,44.857601 30.595146,45.876144 
	C32.717201,47.029976 34.608490,50.463943 34.771683,53.023113 
	C35.300232,61.311760 34.954468,69.654167 35.031086,77.975082 
	C35.049290,79.952156 35.159397,81.987625 35.643173,83.890495 
	C37.359547,90.641602 42.611309,93.926674 48.519638,92.132721 
	C55.092815,90.136902 58.184830,84.758110 55.404121,78.207779 
	C52.370743,71.062241 48.425079,64.286049 44.635498,57.483448 
	C38.210426,45.949917 37.015690,33.771183 40.928673,21.405201 
	C43.160275,14.352799 46.925400,7.785651 50.000000,1.000000 
	C53.030594,1.000000 56.061188,1.000000 59.585728,1.379241 
	C60.768726,4.302419 61.241268,6.930701 62.192520,9.372494 
	C64.092300,14.249092 65.273697,19.852114 68.503540,23.675192 
	C76.302261,32.906330 85.590027,40.883533 93.340454,50.149994 
	C98.568428,56.400604 102.202538,63.984734 106.545074,70.975174 
	C107.374283,72.310013 108.182236,73.658051 109.000000,75.000000 
M61.525917,67.012367 
	C62.991154,70.535980 64.816223,73.957176 65.853683,77.602531 
	C68.883430,88.248238 62.456985,99.057953 51.724930,101.850807 
	C40.202461,104.849358 28.529799,98.957077 26.415972,87.988457 
	C24.955286,80.408966 25.406336,72.461761 24.991886,64.679474 
	C24.882895,62.632885 24.732246,60.588512 24.562239,57.944557 
	C23.252270,58.779324 22.585032,59.014156 22.194773,59.480690 
	C7.730158,76.772491 5.897128,105.377731 23.924149,122.507797 
	C36.447033,134.407578 51.077477,137.965759 67.181961,133.539230 
	C83.263939,129.118851 94.080116,118.116470 97.887535,101.759705 
	C103.020020,79.710480 93.798416,62.455051 77.498207,48.422970 
	C68.702812,40.851429 60.857635,32.692188 56.025543,21.994600 
	C55.117393,19.984074 54.314903,17.925819 53.129627,15.090589 
	C48.580040,23.316746 46.062572,31.308786 48.869095,39.305656 
	C52.135933,48.614159 57.009872,57.358646 61.525917,67.012367 
z"/>
<path fill="#000000" opacity="1.000000" stroke="none" 
	d="
M49.531342,1.000000 
	C46.925400,7.785651 43.160275,14.352799 40.928673,21.405201 
	C37.015690,33.771183 38.210426,45.949917 44.635498,57.483448 
	C48.425079,64.286049 52.370743,71.062241 55.404121,78.207779 
	C58.184830,84.758110 55.092815,90.136902 48.519638,92.132721 
	C42.611309,93.926674 37.359547,90.641602 35.643173,83.890495 
	C35.159397,81.987625 35.049290,79.952156 35.031086,77.975082 
	C34.954468,69.654167 35.300232,61.311760 34.771683,53.023113 
	C34.608490,50.463943 32.717201,47.029976 30.595146,45.876144 
	C28.721916,44.857601 24.969290,45.716915 22.837345,47.030548 
	C14.349522,52.260448 9.201457,60.391209 5.031139,69.218231 
	C3.982289,71.438263 2.779367,73.585503 1.323625,75.883095 
	C1.000000,51.088528 1.000000,26.177053 1.000000,1.000000 
	C17.019917,1.000000 33.041298,1.000000 49.531342,1.000000 
z"/>
<path fill="#000000" opacity="1.000000" stroke="none" 
	d="
M109.000000,74.531342 
	C108.182236,73.658051 107.374283,72.310013 106.545074,70.975174 
	C102.202538,63.984734 98.568428,56.400604 93.340454,50.149994 
	C85.590027,40.883533 76.302261,32.906330 68.503540,23.675192 
	C65.273697,19.852114 64.092300,14.249092 62.192520,9.372494 
	C61.241268,6.930701 60.768726,4.302419 60.039837,1.379241 
	C76.275024,1.000000 92.550041,1.000000 109.000000,1.000000 
	C109.000000,25.353949 109.000000,49.708317 109.000000,74.531342 
z"/>
<path fill="#000000" opacity="1.000000" stroke="none" 
	d="
M70.468658,145.000000 
	C70.677017,144.343201 71.238327,143.383698 72.048096,143.074203 
	C89.252785,136.498215 100.966591,124.545334 107.356995,107.305168 
	C107.512489,106.885674 108.011971,106.593697 108.675507,106.121124 
	C109.000000,118.926643 109.000000,131.853287 109.000000,145.000000 
	C96.313286,145.000000 83.625305,145.000000 70.468658,145.000000 
z"/>
<path fill="#000000" opacity="1.000000" stroke="none" 
	d="
M0.999999,106.468658 
	C1.656934,106.677399 2.619385,107.239212 2.925820,108.049217 
	C9.453170,125.302948 21.434311,136.987228 38.694263,143.356842 
	C39.113911,143.511703 39.406109,144.011887 39.878876,144.675507 
	C27.073357,145.000000 14.146712,145.000000 1.000000,145.000000 
	C1.000000,132.313293 1.000000,119.625305 0.999999,106.468658 
z"/>
<path fill="#000000" opacity="1.000000" stroke="none" 
	d="
M61.356148,66.680130 
	C57.009872,57.358646 52.135933,48.614159 48.869095,39.305656 
	C46.062572,31.308786 48.580040,23.316746 53.129627,15.090589 
	C54.314903,17.925819 55.117393,19.984074 56.025543,21.994600 
	C60.857635,32.692188 68.702812,40.851429 77.498207,48.422970 
	C93.798416,62.455051 103.020020,79.710480 97.887535,101.759705 
	C94.080116,118.116470 83.263939,129.118851 67.181961,133.539230 
	C51.077477,137.965759 36.447033,134.407578 23.924149,122.507797 
	C5.897128,105.377731 7.730158,76.772491 22.194773,59.480690 
	C22.585032,59.014156 23.252270,58.779324 24.562239,57.944557 
	C24.732246,60.588512 24.882895,62.632885 24.991886,64.679474 
	C25.406336,72.461761 24.955286,80.408966 26.415972,87.988457 
	C28.529799,98.957077 40.202461,104.849358 51.724930,101.850807 
	C62.456985,99.057953 68.883430,88.248238 65.853683,77.602531 
	C64.816223,73.957176 62.991154,70.535980 61.356148,66.680130 
z"/>
</svg>