<svg xmlns="http://www.w3.org/2000/svg" xmlns:xlink="http://www.w3.org/1999/xlink" width="1100" height="456" viewBox="0 0 1100 456">
    <defs>
        <rect id="b" width="760" height="392" rx="3"/>
        <filter id="a" width="100.5%" height="101.3%" x="-.3%" y="-.3%" filterUnits="objectBoundingBox">
            <feMorphology in="SourceAlpha" radius=".5" result="shadowSpreadOuter1"/>
            <feOffset dy="2" in="shadowSpreadOuter1" result="shadowOffsetOuter1"/>
            <feGaussianBlur in="shadowOffsetOuter1" result="shadowBlurOuter1" stdDeviation=".5"/>
            <feColorMatrix in="shadowBlurOuter1" result="shadowMatrixOuter1" values="0 0 0 0 0 0 0 0 0 0 0 0 0 0 0 0 0 0 0.12 0"/>
            <feOffset dy="1" in="SourceAlpha" result="shadowOffsetOuter2"/>
            <feGaussianBlur in="shadowOffsetOuter2" result="shadowBlurOuter2" stdDeviation=".5"/>
            <feColorMatrix in="shadowBlurOuter2" result="shadowMatrixOuter2" values="0 0 0 0 0 0 0 0 0 0 0 0 0 0 0 0 0 0 0.14 0"/>
            <feMerge>
                <feMergeNode in="shadowMatrixOuter1"/>
                <feMergeNode in="shadowMatrixOuter2"/>
            </feMerge>
        </filter>
        <path id="c" d="M12 10l-4 4h8z"/>
        <path id="e" d="M0 0h724v56H0z"/>
        <filter id="d" width="100.1%" height="103.6%" x="-.1%" y="-.9%" filterUnits="objectBoundingBox">
            <feOffset dy="1" in="SourceAlpha" result="shadowOffsetOuter1"/>
            <feColorMatrix in="shadowOffsetOuter1" values="0 0 0 0 0.874509804 0 0 0 0 0.890196078 0 0 0 0 0.909803922 0 0 0 1 0"/>
        </filter>
        <filter id="f" width="100.3%" height="105.4%" x="-.1%" y="-1.8%" filterUnits="objectBoundingBox">
            <feOffset dy="2" in="SourceAlpha" result="shadowOffsetInner1"/>
            <feComposite in="shadowOffsetInner1" in2="SourceAlpha" k2="-1" k3="1" operator="arithmetic" result="shadowInnerInner1"/>
            <feColorMatrix in="shadowInnerInner1" values="0 0 0 0 0.874509804 0 0 0 0 0.890196078 0 0 0 0 0.909803922 0 0 0 1 0"/>
        </filter>
        <path id="h" d="M0 0h724v56H0z"/>
        <filter id="g" width="100.1%" height="103.6%" x="-.1%" y="-.9%" filterUnits="objectBoundingBox">
            <feOffset dy="1" in="SourceAlpha" result="shadowOffsetOuter1"/>
            <feColorMatrix in="shadowOffsetOuter1" values="0 0 0 0 0.874509804 0 0 0 0 0.890196078 0 0 0 0 0.909803922 0 0 0 1 0"/>
        </filter>
        <filter id="i" width="100.3%" height="105.4%" x="-.1%" y="-1.8%" filterUnits="objectBoundingBox">
            <feOffset dy="2" in="SourceAlpha" result="shadowOffsetInner1"/>
            <feComposite in="shadowOffsetInner1" in2="SourceAlpha" k2="-1" k3="1" operator="arithmetic" result="shadowInnerInner1"/>
            <feColorMatrix in="shadowInnerInner1" values="0 0 0 0 0.874509804 0 0 0 0 0.890196078 0 0 0 0 0.909803922 0 0 0 1 0"/>
        </filter>
        <path id="k" d="M0 0h724v56H0z"/>
        <filter id="j" width="100.1%" height="103.6%" x="-.1%" y="-.9%" filterUnits="objectBoundingBox">
            <feOffset dy="1" in="SourceAlpha" result="shadowOffsetOuter1"/>
            <feColorMatrix in="shadowOffsetOuter1" values="0 0 0 0 0.874509804 0 0 0 0 0.890196078 0 0 0 0 0.909803922 0 0 0 1 0"/>
        </filter>
        <filter id="l" width="100.3%" height="105.4%" x="-.1%" y="-1.8%" filterUnits="objectBoundingBox">
            <feOffset dy="2" in="SourceAlpha" result="shadowOffsetInner1"/>
            <feComposite in="shadowOffsetInner1" in2="SourceAlpha" k2="-1" k3="1" operator="arithmetic" result="shadowInnerInner1"/>
            <feColorMatrix in="shadowInnerInner1" values="0 0 0 0 0.874509804 0 0 0 0 0.890196078 0 0 0 0 0.909803922 0 0 0 1 0"/>
        </filter>
        <path id="n" d="M0 0h724v56H0z"/>
        <filter id="m" width="100.1%" height="103.6%" x="-.1%" y="-.9%" filterUnits="objectBoundingBox">
            <feOffset dy="1" in="SourceAlpha" result="shadowOffsetOuter1"/>
            <feColorMatrix in="shadowOffsetOuter1" values="0 0 0 0 0.874509804 0 0 0 0 0.890196078 0 0 0 0 0.909803922 0 0 0 1 0"/>
        </filter>
        <filter id="o" width="100.3%" height="105.4%" x="-.1%" y="-1.8%" filterUnits="objectBoundingBox">
            <feOffset dy="2" in="SourceAlpha" result="shadowOffsetInner1"/>
            <feComposite in="shadowOffsetInner1" in2="SourceAlpha" k2="-1" k3="1" operator="arithmetic" result="shadowInnerInner1"/>
            <feColorMatrix in="shadowInnerInner1" values="0 0 0 0 0.874509804 0 0 0 0 0.890196078 0 0 0 0 0.909803922 0 0 0 1 0"/>
        </filter>
        <path id="q" d="M0 0h724v56H0z"/>
        <filter id="p" width="100.1%" height="103.6%" x="-.1%" y="-.9%" filterUnits="objectBoundingBox">
            <feOffset dy="1" in="SourceAlpha" result="shadowOffsetOuter1"/>
            <feColorMatrix in="shadowOffsetOuter1" values="0 0 0 0 0.874509804 0 0 0 0 0.890196078 0 0 0 0 0.909803922 0 0 0 1 0"/>
        </filter>
        <filter id="r" width="100.3%" height="105.4%" x="-.1%" y="-1.8%" filterUnits="objectBoundingBox">
            <feOffset dy="2" in="SourceAlpha" result="shadowOffsetInner1"/>
            <feComposite in="shadowOffsetInner1" in2="SourceAlpha" k2="-1" k3="1" operator="arithmetic" result="shadowInnerInner1"/>
            <feColorMatrix in="shadowInnerInner1" values="0 0 0 0 0.874509804 0 0 0 0 0.890196078 0 0 0 0 0.909803922 0 0 0 1 0"/>
        </filter>
        <path id="s" d="M0 0h724v56H0z"/>
        <filter id="t" width="100.3%" height="103.6%" x="-.1%" y="-1.8%" filterUnits="objectBoundingBox">
            <feOffset dy="2" in="SourceAlpha" result="shadowOffsetInner1"/>
            <feComposite in="shadowOffsetInner1" in2="SourceAlpha" k2="-1" k3="1" operator="arithmetic" result="shadowInnerInner1"/>
            <feColorMatrix in="shadowInnerInner1" values="0 0 0 0 0.874509804 0 0 0 0 0.890196078 0 0 0 0 0.909803922 0 0 0 1 0"/>
        </filter>
        <circle id="u" cx="18" cy="18" r="18"/>
        <path id="w" d="M10 0C4.486 0 0 4.486 0 10s4.486 10 10 10 10-4.486 10-10S15.514 0 10 0m0 18c-4.411 0-8-3.589-8-8s3.589-8 8-8 8 3.589 8 8-3.589 8-8 8m0-4.1a1.1 1.1 0 1 0 .001 2.201A1.1 1.1 0 0 0 10 13.9M10 4C8.625 4 7.425 5.161 7.293 5.293A1.001 1.001 0 0 0 8.704 6.71C8.995 6.424 9.608 6 10 6a1.001 1.001 0 0 1 .591 1.808C9.58 8.548 9 9.616 9 10.737V11a1 1 0 1 0 2 0v-.263c0-.653.484-1.105.773-1.317A3.013 3.013 0 0 0 13 7c0-1.654-1.346-3-3-3"/>
        <rect id="z" width="308" height="391" rx="3"/>
        <filter id="y" width="101.3%" height="101.3%" x="-.6%" y="-.3%" filterUnits="objectBoundingBox">
            <feMorphology in="SourceAlpha" radius=".5" result="shadowSpreadOuter1"/>
            <feOffset dy="2" in="shadowSpreadOuter1" result="shadowOffsetOuter1"/>
            <feGaussianBlur in="shadowOffsetOuter1" result="shadowBlurOuter1" stdDeviation=".5"/>
            <feColorMatrix in="shadowBlurOuter1" result="shadowMatrixOuter1" values="0 0 0 0 0 0 0 0 0 0 0 0 0 0 0 0 0 0 0.12 0"/>
            <feOffset dy="1" in="SourceAlpha" result="shadowOffsetOuter2"/>
            <feGaussianBlur in="shadowOffsetOuter2" result="shadowBlurOuter2" stdDeviation=".5"/>
            <feColorMatrix in="shadowBlurOuter2" result="shadowMatrixOuter2" values="0 0 0 0 0 0 0 0 0 0 0 0 0 0 0 0 0 0 0.14 0"/>
            <feMerge>
                <feMergeNode in="shadowMatrixOuter1"/>
                <feMergeNode in="shadowMatrixOuter2"/>
            </feMerge>
        </filter>
        <path id="A" d="M0 10c0-1.105.903-2 2.004-2h179.992c1.107 0 2.004.888 2.004 2 0 1.105-.903 2-2.004 2H2.004A1.997 1.997 0 0 1 0 10z"/>
        <linearGradient id="E" x1="50%" x2="50%" y1="0%" y2="100%">
            <stop offset="0%" stop-color="#FFF"/>
            <stop offset="100%" stop-color="#F9FAFB"/>
        </linearGradient>
        <circle id="D" cx="9.5" cy="9.5" r="8.5"/>
        <filter id="C" width="117.6%" height="123.5%" x="-8.8%" y="-8.8%" filterUnits="objectBoundingBox">
            <feMorphology in="SourceAlpha" operator="dilate" radius="1" result="shadowSpreadOuter1"/>
            <feOffset dy="1" in="shadowSpreadOuter1" result="shadowOffsetOuter1"/>
            <feComposite in="shadowOffsetOuter1" in2="SourceAlpha" operator="out" result="shadowOffsetOuter1"/>
            <feColorMatrix in="shadowOffsetOuter1" values="0 0 0 0 0.0863 0 0 0 0 0.1137 0 0 0 0 0.1451 0 0 0 0.05 0"/>
        </filter>
        <rect id="F" width="75" height="36" rx="3"/>
        <filter id="G" width="104%" height="108.3%" x="-2%" y="-4.2%" filterUnits="objectBoundingBox">
            <feGaussianBlur in="SourceAlpha" result="shadowBlurInner1" stdDeviation="1"/>
            <feOffset dy="1" in="shadowBlurInner1" result="shadowOffsetInner1"/>
            <feComposite in="shadowOffsetInner1" in2="SourceAlpha" k2="-1" k3="1" operator="arithmetic" result="shadowInnerInner1"/>
            <feColorMatrix in="shadowInnerInner1" result="shadowMatrixInner1" values="0 0 0 0 0.4 0 0 0 0 0.4431 0 0 0 0 0.4824 0 0 0 0.21 0"/>
            <feMorphology in="SourceAlpha" radius="1" result="shadowSpreadInner2"/>
            <feOffset in="shadowSpreadInner2" result="shadowOffsetInner2"/>
            <feComposite in="shadowOffsetInner2" in2="SourceAlpha" k2="-1" k3="1" operator="arithmetic" result="shadowInnerInner2"/>
            <feColorMatrix in="shadowInnerInner2" result="shadowMatrixInner2" values="0 0 0 0 0.4 0 0 0 0 0.4431 0 0 0 0 0.4824 0 0 0 0.25 0"/>
            <feMerge>
                <feMergeNode in="shadowMatrixInner1"/>
                <feMergeNode in="shadowMatrixInner2"/>
            </feMerge>
        </filter>
        <path id="H" d="M0 10c0-1.105.903-2 2.004-2h179.992c1.107 0 2.004.888 2.004 2 0 1.105-.903 2-2.004 2H2.004A1.997 1.997 0 0 1 0 10z"/>
        <circle id="K" cx="9.5" cy="9.5" r="8.5"/>
        <filter id="J" width="117.6%" height="123.5%" x="-8.8%" y="-8.8%" filterUnits="objectBoundingBox">
            <feMorphology in="SourceAlpha" operator="dilate" radius="1" result="shadowSpreadOuter1"/>
            <feOffset dy="1" in="shadowSpreadOuter1" result="shadowOffsetOuter1"/>
            <feComposite in="shadowOffsetOuter1" in2="SourceAlpha" operator="out" result="shadowOffsetOuter1"/>
            <feColorMatrix in="shadowOffsetOuter1" values="0 0 0 0 0.0863 0 0 0 0 0.1137 0 0 0 0 0.1451 0 0 0 0.05 0"/>
        </filter>
        <rect id="L" width="75" height="36" rx="3"/>
        <filter id="M" width="104%" height="108.3%" x="-2%" y="-4.2%" filterUnits="objectBoundingBox">
            <feGaussianBlur in="SourceAlpha" result="shadowBlurInner1" stdDeviation="1"/>
            <feOffset dy="1" in="shadowBlurInner1" result="shadowOffsetInner1"/>
            <feComposite in="shadowOffsetInner1" in2="SourceAlpha" k2="-1" k3="1" operator="arithmetic" result="shadowInnerInner1"/>
            <feColorMatrix in="shadowInnerInner1" result="shadowMatrixInner1" values="0 0 0 0 0.4 0 0 0 0 0.4431 0 0 0 0 0.4824 0 0 0 0.21 0"/>
            <feMorphology in="SourceAlpha" radius="1" result="shadowSpreadInner2"/>
            <feOffset in="shadowSpreadInner2" result="shadowOffsetInner2"/>
            <feComposite in="shadowOffsetInner2" in2="SourceAlpha" k2="-1" k3="1" operator="arithmetic" result="shadowInnerInner2"/>
            <feColorMatrix in="shadowInnerInner2" result="shadowMatrixInner2" values="0 0 0 0 0.4 0 0 0 0 0.4431 0 0 0 0 0.4824 0 0 0 0.25 0"/>
            <feMerge>
                <feMergeNode in="shadowMatrixInner1"/>
                <feMergeNode in="shadowMatrixInner2"/>
            </feMerge>
        </filter>
        <rect id="O" width="16" height="16" rx="3"/>
        <filter id="N" width="125%" height="125%" x="-12.5%" y="-6.2%" filterUnits="objectBoundingBox">
            <feOffset dy="1" in="SourceAlpha" result="shadowOffsetOuter1"/>
            <feGaussianBlur in="shadowOffsetOuter1" result="shadowBlurOuter1" stdDeviation=".5"/>
            <feColorMatrix in="shadowBlurOuter1" result="shadowMatrixOuter1" values="0 0 0 0 0.251 0 0 0 0 0.3216 0 0 0 0 0.3451 0 0 0 0.032 0"/>
            <feOffset dy="1" in="SourceAlpha" result="shadowOffsetOuter2"/>
            <feGaussianBlur in="shadowOffsetOuter2" result="shadowBlurOuter2" stdDeviation=".5"/>
            <feColorMatrix in="shadowBlurOuter2" result="shadowMatrixOuter2" values="0 0 0 0 0.3796 0 0 0 0 0.4755 0 0 0 0 0.52 0 0 0 0.0528 0"/>
            <feMerge>
                <feMergeNode in="shadowMatrixOuter1"/>
                <feMergeNode in="shadowMatrixOuter2"/>
            </feMerge>
        </filter>
        <rect id="Q" width="16" height="16" rx="3"/>
        <filter id="P" width="125%" height="125%" x="-12.5%" y="-6.2%" filterUnits="objectBoundingBox">
            <feOffset dy="1" in="SourceAlpha" result="shadowOffsetOuter1"/>
            <feGaussianBlur in="shadowOffsetOuter1" result="shadowBlurOuter1" stdDeviation=".5"/>
            <feColorMatrix in="shadowBlurOuter1" result="shadowMatrixOuter1" values="0 0 0 0 0.251 0 0 0 0 0.3216 0 0 0 0 0.3451 0 0 0 0.032 0"/>
            <feOffset dy="1" in="SourceAlpha" result="shadowOffsetOuter2"/>
            <feGaussianBlur in="shadowOffsetOuter2" result="shadowBlurOuter2" stdDeviation=".5"/>
            <feColorMatrix in="shadowBlurOuter2" result="shadowMatrixOuter2" values="0 0 0 0 0.3796 0 0 0 0 0.4755 0 0 0 0 0.52 0 0 0 0.0528 0"/>
            <feMerge>
                <feMergeNode in="shadowMatrixOuter1"/>
                <feMergeNode in="shadowMatrixOuter2"/>
            </feMerge>
        </filter>
        <rect id="S" width="16" height="16" rx="3"/>
        <filter id="R" width="125%" height="125%" x="-12.5%" y="-6.2%" filterUnits="objectBoundingBox">
            <feOffset dy="1" in="SourceAlpha" result="shadowOffsetOuter1"/>
            <feGaussianBlur in="shadowOffsetOuter1" result="shadowBlurOuter1" stdDeviation=".5"/>
            <feColorMatrix in="shadowBlurOuter1" result="shadowMatrixOuter1" values="0 0 0 0 0.251 0 0 0 0 0.3216 0 0 0 0 0.3451 0 0 0 0.032 0"/>
            <feOffset dy="1" in="SourceAlpha" result="shadowOffsetOuter2"/>
            <feGaussianBlur in="shadowOffsetOuter2" result="shadowBlurOuter2" stdDeviation=".5"/>
            <feColorMatrix in="shadowBlurOuter2" result="shadowMatrixOuter2" values="0 0 0 0 0.3796 0 0 0 0 0.4755 0 0 0 0 0.52 0 0 0 0.0528 0"/>
            <feMerge>
                <feMergeNode in="shadowMatrixOuter1"/>
                <feMergeNode in="shadowMatrixOuter2"/>
            </feMerge>
        </filter>
        <rect id="U" width="24" height="24" rx="3"/>
        <filter id="T" width="104.2%" height="108.3%" x="-2.1%" y="-2.1%" filterUnits="objectBoundingBox">
            <feOffset dy="1" in="SourceAlpha" result="shadowOffsetOuter1"/>
            <feComposite in="shadowOffsetOuter1" in2="SourceAlpha" operator="out" result="shadowOffsetOuter1"/>
            <feColorMatrix in="shadowOffsetOuter1" values="0 0 0 0 0.0863 0 0 0 0 0.1137 0 0 0 0 0.1451 0 0 0 0.05 0"/>
        </filter>
        <rect id="W" width="16" height="16" rx="3"/>
        <filter id="V" width="125%" height="125%" x="-12.5%" y="-6.2%" filterUnits="objectBoundingBox">
            <feOffset dy="1" in="SourceAlpha" result="shadowOffsetOuter1"/>
            <feGaussianBlur in="shadowOffsetOuter1" result="shadowBlurOuter1" stdDeviation=".5"/>
            <feColorMatrix in="shadowBlurOuter1" result="shadowMatrixOuter1" values="0 0 0 0 0.251 0 0 0 0 0.3216 0 0 0 0 0.3451 0 0 0 0.032 0"/>
            <feOffset dy="1" in="SourceAlpha" result="shadowOffsetOuter2"/>
            <feGaussianBlur in="shadowOffsetOuter2" result="shadowBlurOuter2" stdDeviation=".5"/>
            <feColorMatrix in="shadowBlurOuter2" result="shadowMatrixOuter2" values="0 0 0 0 0.3796 0 0 0 0 0.4755 0 0 0 0 0.52 0 0 0 0.0528 0"/>
            <feMerge>
                <feMergeNode in="shadowMatrixOuter1"/>
                <feMergeNode in="shadowMatrixOuter2"/>
            </feMerge>
        </filter>
        <rect id="Y" width="16" height="16" rx="3"/>
        <filter id="X" width="125%" height="125%" x="-12.5%" y="-6.2%" filterUnits="objectBoundingBox">
            <feOffset dy="1" in="SourceAlpha" result="shadowOffsetOuter1"/>
            <feGaussianBlur in="shadowOffsetOuter1" result="shadowBlurOuter1" stdDeviation=".5"/>
            <feColorMatrix in="shadowBlurOuter1" result="shadowMatrixOuter1" values="0 0 0 0 0.251 0 0 0 0 0.3216 0 0 0 0 0.3451 0 0 0 0.032 0"/>
            <feOffset dy="1" in="SourceAlpha" result="shadowOffsetOuter2"/>
            <feGaussianBlur in="shadowOffsetOuter2" result="shadowBlurOuter2" stdDeviation=".5"/>
            <feColorMatrix in="shadowBlurOuter2" result="shadowMatrixOuter2" values="0 0 0 0 0.3796 0 0 0 0 0.4755 0 0 0 0 0.52 0 0 0 0.0528 0"/>
            <feMerge>
                <feMergeNode in="shadowMatrixOuter1"/>
                <feMergeNode in="shadowMatrixOuter2"/>
            </feMerge>
        </filter>
        <rect id="aa" width="16" height="16" rx="3"/>
        <filter id="Z" width="125%" height="125%" x="-12.5%" y="-6.2%" filterUnits="objectBoundingBox">
            <feOffset dy="1" in="SourceAlpha" result="shadowOffsetOuter1"/>
            <feGaussianBlur in="shadowOffsetOuter1" result="shadowBlurOuter1" stdDeviation=".5"/>
            <feColorMatrix in="shadowBlurOuter1" result="shadowMatrixOuter1" values="0 0 0 0 0.251 0 0 0 0 0.3216 0 0 0 0 0.3451 0 0 0 0.032 0"/>
            <feOffset dy="1" in="SourceAlpha" result="shadowOffsetOuter2"/>
            <feGaussianBlur in="shadowOffsetOuter2" result="shadowBlurOuter2" stdDeviation=".5"/>
            <feColorMatrix in="shadowBlurOuter2" result="shadowMatrixOuter2" values="0 0 0 0 0.3796 0 0 0 0 0.4755 0 0 0 0 0.52 0 0 0 0.0528 0"/>
            <feMerge>
                <feMergeNode in="shadowMatrixOuter1"/>
                <feMergeNode in="shadowMatrixOuter2"/>
            </feMerge>
        </filter>
        <rect id="ac" width="24" height="24" rx="3"/>
        <filter id="ab" width="104.2%" height="108.3%" x="-2.1%" y="-2.1%" filterUnits="objectBoundingBox">
            <feOffset dy="1" in="SourceAlpha" result="shadowOffsetOuter1"/>
            <feComposite in="shadowOffsetOuter1" in2="SourceAlpha" operator="out" result="shadowOffsetOuter1"/>
            <feColorMatrix in="shadowOffsetOuter1" values="0 0 0 0 0.0863 0 0 0 0 0.1137 0 0 0 0 0.1451 0 0 0 0.05 0"/>
        </filter>
    </defs>
    <g fill="none" fill-rule="evenodd">
        <g transform="translate(1)">
            <use fill="#000" filter="url(#a)" xlink:href="#b"/>
            <use fill="#FFF" xlink:href="#b"/>
        </g>
        <text fill="#212B36" font-family="OpenSans, Open Sans" font-size="12" transform="translate(1)">
            <tspan x="20" y="33">RATE TYPE</tspan>
        </text>
        <text fill="#212B36" font-family="OpenSans, Open Sans" font-size="12" transform="translate(1)">
            <tspan x="193" y="33">FAIR RATE / APR</tspan>
        </text>
        <text fill="#212B36" font-family="OpenSans, Open Sans" font-size="12" transform="translate(1)">
            <tspan x="410" y="33">POINTS/CREDITS</tspan>
        </text>
        <text fill="#212B36" font-family="OpenSans, Open Sans" font-size="12" transform="translate(649 17)">
            <tspan x="0" y="16">PER MONTH</tspan>
        </text>
        <g transform="translate(722 17)">
            <path d="M0 0h23v23H0z"/>
            <use fill="#31373D" xlink:href="#c"/>
        </g>
        <g transform="translate(19 56)">
            <use fill="#000" filter="url(#d)" xlink:href="#e"/>
            <use fill="#FFF" xlink:href="#e"/>
            <use fill="#000" filter="url(#f)" xlink:href="#e"/>
        </g>
        <text font-family="OpenSans-Light, Open Sans" font-size="18" font-weight="300" transform="translate(19 56)">
            <tspan x="175" y="35" fill="#212B36">4.250% </tspan> <tspan x="239.582" y="35" fill="#919EAB">/ 5.125%</tspan>
        </text>
        <text fill="#212B36" font-family="OpenSans-Light, Open Sans" font-size="18" font-weight="300" text-decoration="underline" transform="translate(19 56)">
            <tspan x="392" y="35">-$1,532</tspan>
        </text>
        <text fill="#212B36" font-family="OpenSans-Light, Open Sans" font-size="18" font-weight="300" transform="translate(19 56)">
            <tspan x="599" y="35">$3,120</tspan>
        </text>
        <g transform="translate(482 82)">
            <rect width="62" height="4" fill="#DFE3E8" rx="2"/>
            <rect width="42" height="4" fill="#00CFC0" rx="2"/>
        </g>
        <g transform="translate(683 82)">
            <rect width="62" height="4" fill="#DFE3E8" rx="2"/>
            <rect width="42" height="4" fill="#00CFC0" rx="2"/>
        </g>
        <g transform="translate(21 72)">
            <rect width="60" height="25" fill="#00CFC0" rx="12.5"/>
            <text fill="#FFF" font-family="OpenSans, Open Sans" font-size="12">
                <tspan x="7" y="17">15 years</tspan>
            </text>
        </g>
        <g transform="translate(86 72)">
            <rect width="42" height="25" fill="#F4F6F8" rx="12.5"/>
            <text fill="#454F5B" font-family="OpenSans, Open Sans" font-size="12">
                <tspan x="7" y="17">Fixed</tspan>
            </text>
        </g>
        <g>
            <g transform="translate(19 112)">
                <use fill="#000" filter="url(#g)" xlink:href="#h"/>
                <use fill="#FFF" xlink:href="#h"/>
                <use fill="#000" filter="url(#i)" xlink:href="#h"/>
            </g>
            <text font-family="HelveticaNeue-Light, Helvetica Neue" font-size="18" font-weight="300" transform="translate(19 112)">
                <tspan x="175" y="35" fill="#212B36">4.650% </tspan> <tspan x="241.042" y="35" fill="#919EAB">/ 5.215%</tspan>
            </text>
            <text fill="#212B36" font-family="HelveticaNeue-Light, Helvetica Neue" font-size="18" font-weight="300" text-decoration="underline" transform="translate(19 112)">
                <tspan x="407.308" y="35">-$625</tspan>
            </text>
            <text fill="#212B36" font-family="HelveticaNeue-Light, Helvetica Neue" font-size="18" font-weight="300" transform="translate(19 112)">
                <tspan x="599.956" y="35">$2,585</tspan>
            </text>
            <g transform="translate(482 139)">
                <rect width="62" height="4" fill="#DFE3E8" rx="2"/>
                <rect width="52" height="4" fill="#23C0F5" rx="2"/>
            </g>
            <g transform="translate(683 138)">
                <rect width="62" height="4" fill="#DFE3E8" rx="2"/>
                <rect width="42" height="4" fill="#23C0F5" rx="2"/>
            </g>
            <g transform="translate(21 128)">
                <rect width="60" height="25" fill="#23C0F5" rx="12.5"/>
                <text fill="#FFF" font-family="HelveticaNeue-Medium, Helvetica Neue" font-size="12" font-weight="400">
                    <tspan x="7" y="17">20 years</tspan>
                </text>
            </g>
            <g transform="translate(86 128)">
                <rect width="42" height="25" fill="#F4F6F8" rx="12.5"/>
                <text fill="#454F5B" font-family="HelveticaNeue, Helvetica Neue" font-size="12">
                    <tspan x="7" y="17">Fixed</tspan>
                </text>
            </g>
        </g>
        <g>
            <g transform="translate(19 168)">
                <use fill="#000" filter="url(#j)" xlink:href="#k"/>
                <use fill="#FFF" xlink:href="#k"/>
                <use fill="#000" filter="url(#l)" xlink:href="#k"/>
            </g>
            <text font-family="HelveticaNeue-Light, Helvetica Neue" font-size="18" font-weight="300" transform="translate(19 168)">
                <tspan x="175" y="35" fill="#212B36">4.875% </tspan> <tspan x="241.042" y="35" fill="#919EAB">/ 4.875%</tspan>
            </text>
            <text fill="#212B36" font-family="HelveticaNeue-Light, Helvetica Neue" font-size="18" font-weight="300" text-decoration="underline" transform="translate(19 168)">
                <tspan x="392" y="35">-$1,625</tspan>
            </text>
            <text fill="#212B36" font-family="HelveticaNeue-Light, Helvetica Neue" font-size="18" font-weight="300" transform="translate(19 168)">
                <tspan x="599.956" y="35">$2,585</tspan>
            </text>
            <g transform="translate(482 195)">
                <rect width="62" height="4" fill="#DFE3E8" rx="2"/>
                <rect width="22" height="4" fill="#007ACE" rx="2"/>
            </g>
            <g transform="translate(683 194)">
                <rect width="62" height="4" fill="#DFE3E8" rx="2"/>
                <rect width="52" height="4" fill="#007ACE" rx="2"/>
            </g>
            <g transform="translate(21 184)">
                <rect width="60" height="25" fill="#007ACE" rx="12.5"/>
                <text fill="#FFF" font-family="HelveticaNeue-Medium, Helvetica Neue" font-size="12" font-weight="400">
                    <tspan x="7" y="17">30 years</tspan>
                </text>
            </g>
            <g transform="translate(86 184)">
                <rect width="42" height="25" fill="#F4F6F8" rx="12.5"/>
                <text fill="#454F5B" font-family="HelveticaNeue, Helvetica Neue" font-size="12">
                    <tspan x="7" y="17">Fixed</tspan>
                </text>
            </g>
        </g>
        <g>
            <g transform="translate(19 224)">
                <use fill="#000" filter="url(#m)" xlink:href="#n"/>
                <use fill="#FFF" xlink:href="#n"/>
                <use fill="#000" filter="url(#o)" xlink:href="#n"/>
            </g>
            <text font-family="HelveticaNeue-Light, Helvetica Neue" font-size="18" font-weight="300" transform="translate(19 224)">
                <tspan x="175" y="35" fill="#212B36">4.750% </tspan> <tspan x="241.042" y="35" fill="#919EAB">/ 4.875%</tspan>
            </text>
            <text fill="#212B36" font-family="HelveticaNeue-Light, Helvetica Neue" font-size="18" font-weight="300" text-decoration="underline" transform="translate(19 224)">
                <tspan x="407.308" y="35">-$154</tspan>
            </text>
            <text fill="#212B36" font-family="HelveticaNeue-Light, Helvetica Neue" font-size="18" font-weight="300" transform="translate(19 224)">
                <tspan x="599.956" y="35">$2,072</tspan>
            </text>
            <g transform="translate(482 251)">
                <rect width="62" height="4" fill="#DFE3E8" rx="2"/>
                <rect width="42" height="4" fill="#5C6AC4" rx="2"/>
            </g>
            <g transform="translate(683 250)">
                <rect width="62" height="4" fill="#DFE3E8" rx="2"/>
                <rect width="42" height="4" fill="#5C6AC4" rx="2"/>
            </g>
            <g transform="translate(21 240)">
                <rect width="50" height="25" fill="#5C6AC4" rx="12.5"/>
                <text fill="#FFF" font-family="HelveticaNeue-Medium, Helvetica Neue" font-size="12" font-weight="400">
                    <tspan x="13" y="17">10/1</tspan>
                </text>
            </g>
            <g transform="translate(76 240)">
                <rect width="71" height="25" fill="#F4F6F8" rx="12.5"/>
                <text fill="#454F5B" font-family="HelveticaNeue, Helvetica Neue" font-size="12">
                    <tspan x="7" y="17">Adjustable</tspan>
                </text>
            </g>
        </g>
        <g>
            <g transform="translate(19 280)">
                <use fill="#000" filter="url(#p)" xlink:href="#q"/>
                <use fill="#FFF" xlink:href="#q"/>
                <use fill="#000" filter="url(#r)" xlink:href="#q"/>
            </g>
            <text font-family="HelveticaNeue-Light, Helvetica Neue" font-size="18" font-weight="300" transform="translate(19 280)">
                <tspan x="175" y="35" fill="#212B36">4.750% </tspan> <tspan x="241.042" y="35" fill="#919EAB">/ 4.875%</tspan>
            </text>
            <text fill="#212B36" font-family="HelveticaNeue-Light, Helvetica Neue" font-size="18" font-weight="300" text-decoration="underline" transform="translate(19 280)">
                <tspan x="407.308" y="35">-$154</tspan>
            </text>
            <text fill="#212B36" font-family="HelveticaNeue-Light, Helvetica Neue" font-size="18" font-weight="300" transform="translate(19 280)">
                <tspan x="599.956" y="35">$2,072</tspan>
            </text>
            <g transform="translate(482 307)">
                <rect width="62" height="4" fill="#DFE3E8" rx="2"/>
                <rect width="42" height="4" fill="#9C6ADE" rx="2"/>
            </g>
            <g transform="translate(683 306)">
                <rect width="62" height="4" fill="#DFE3E8" rx="2"/>
                <rect width="42" height="4" fill="#9C6ADE" rx="2"/>
            </g>
            <g transform="translate(21 296)">
                <rect width="37" height="25" fill="#9C6ADE" rx="12.5"/>
                <text fill="#FFF" font-family="HelveticaNeue-Medium, Helvetica Neue" font-size="12" font-weight="400">
                    <tspan x="10.716" y="17">7/1</tspan>
                </text>
            </g>
            <g transform="translate(64 296)">
                <rect width="71" height="25" fill="#F4F6F8" rx="12.5"/>
                <text fill="#454F5B" font-family="HelveticaNeue, Helvetica Neue" font-size="12">
                    <tspan x="7" y="17">Adjustable</tspan>
                </text>
            </g>
        </g>
        <g>
            <g transform="translate(19 336)">
                <use fill="#FFF" xlink:href="#s"/>
                <use fill="#000" filter="url(#t)" xlink:href="#s"/>
            </g>
            <text font-family="HelveticaNeue-Light, Helvetica Neue" font-size="18" font-weight="300" transform="translate(19 336)">
                <tspan x="175" y="35" fill="#212B36">4.750% </tspan> <tspan x="241.042" y="35" fill="#919EAB">/ 4.875%</tspan>
            </text>
            <text fill="#212B36" font-family="HelveticaNeue-Light, Helvetica Neue" font-size="18" font-weight="300" text-decoration="underline" transform="translate(19 336)">
                <tspan x="407.308" y="35">-$154</tspan>
            </text>
            <text fill="#212B36" font-family="HelveticaNeue-Light, Helvetica Neue" font-size="18" font-weight="300" transform="translate(19 336)">
                <tspan x="599.956" y="35">$2,072</tspan>
            </text>
            <g transform="translate(482 363)">
                <rect width="62" height="4" fill="#DFE3E8" rx="2"/>
                <rect width="42" height="4" fill="#DE6A93" rx="2"/>
            </g>
            <g transform="translate(683 362)">
                <rect width="62" height="4" fill="#DFE3E8" rx="2"/>
                <rect width="42" height="4" fill="#DE6A93" rx="2"/>
            </g>
            <g transform="translate(21 352)">
                <rect width="37" height="25" fill="#DE6A93" rx="12.5"/>
                <text fill="#FFF" font-family="HelveticaNeue-Medium, Helvetica Neue" font-size="12" font-weight="400">
                    <tspan x="10.716" y="17">5/1</tspan>
                </text>
            </g>
            <g transform="translate(64 352)">
                <rect width="71" height="25" fill="#F4F6F8" rx="12.5"/>
                <text fill="#454F5B" font-family="HelveticaNeue, Helvetica Neue" font-size="12">
                    <tspan x="7" y="17">Adjustable</tspan>
                </text>
            </g>
        </g>
        <g transform="translate(581 408)">
            <rect width="180" height="48" fill="#23C0F5" rx="2"/>
            <text fill="#FFF" font-family="OpenSans, Open Sans" font-size="14" transform="translate(58 14)">
                <tspan x="15.417" y="15">NEXT</tspan>
            </text>
        </g>
        <g>
            <text fill="#637381" font-family="OpenSans, Open Sans" font-size="14" transform="translate(1 403)">
                <tspan x="60" y="22">Rates and fees as of 12:06 PM</tspan>
            </text>
            <g transform="translate(17 403)">
                <mask id="v" fill="#fff">
                    <use xlink:href="#u"/>
                </mask>
                <use fill="#FFF" xlink:href="#u"/>
                <g mask="url(#v)">
                    <g transform="translate(8 8)">
                        <mask id="x" fill="#fff">
                            <use xlink:href="#w"/>
                        </mask>
                        <use fill="#31373D" xlink:href="#w"/>
                    </g>
                </g>
            </g>
            <path fill="#DFE3E8" d="M1 455h320v1H1z"/>
        </g>
        <g>
            <g transform="translate(791)">
                <use fill="#000" filter="url(#y)" xlink:href="#z"/>
                <use fill="#FFF" xlink:href="#z"/>
            </g>
            <g transform="translate(811 231)">
                <path d="M0 0h184v20H0z"/>
                <mask id="B" fill="#fff">
                    <use xlink:href="#A"/>
                </mask>
                <use fill="#C4CDD5" xlink:href="#A"/>
                <g fill="#23C0F5" mask="url(#B)">
                    <path d="M-1.971 4h84.114v11H-1.971z"/>
                </g>
            </g>
            <g transform="translate(884.629 231)">
                <use fill="#000" filter="url(#C)" xlink:href="#D"/>
                <circle cx="9.5" cy="9.5" r="9" fill="url(#E)" stroke="#234561" stroke-opacity=".26"/>
            </g>
            <text fill="#637381" font-family="OpenSans, Open Sans" font-size="14" transform="translate(811 202)">
                <tspan x="0" y="15">Max per month</tspan>
            </text>
            <g>
                <g transform="translate(1010 223)">
                    <use fill="#FFF" xlink:href="#F"/>
                    <use fill="#000" filter="url(#G)" xlink:href="#F"/>
                    <rect width="74" height="35" x=".5" y=".5" stroke="#C4CDD5" stroke-linejoin="square" rx="3"/>
                </g>
                <text fill="#212B36" font-family="OpenSans, Open Sans" font-size="14" transform="translate(1010 223)">
                    <tspan x="13" y="24">$3,200</tspan>
                </text>
            </g>
            <g>
                <g transform="translate(811 308)">
                    <path d="M0 0h184v20H0z"/>
                    <mask id="I" fill="#fff">
                        <use xlink:href="#H"/>
                    </mask>
                    <use fill="#C4CDD5" xlink:href="#H"/>
                    <g fill="#23C0F5" mask="url(#I)">
                        <path d="M-1.971 4h84.114v11H-1.971z"/>
                    </g>
                </g>
                <g transform="translate(884.629 308)">
                    <use fill="#000" filter="url(#J)" xlink:href="#K"/>
                    <circle cx="9.5" cy="9.5" r="9" fill="url(#E)" stroke="#234561" stroke-opacity=".26"/>
                </g>
                <text fill="#637381" font-family="OpenSans, Open Sans" font-size="14" transform="translate(811 279)">
                    <tspan x="0" y="15">Max points/credit</tspan>
                </text>
                <g>
                    <g transform="translate(1010 300)">
                        <use fill="#FFF" xlink:href="#L"/>
                        <use fill="#000" filter="url(#M)" xlink:href="#L"/>
                        <rect width="74" height="35" x=".5" y=".5" stroke="#C4CDD5" stroke-linejoin="square" rx="3"/>
                    </g>
                    <text fill="#212B36" font-family="OpenSans, Open Sans" font-size="14" transform="translate(1010 300)">
                        <tspan x="13" y="24">$3,200</tspan>
                    </text>
                </g>
            </g>
            <g>
                <g transform="translate(811 78)">
                    <use fill="#000" filter="url(#N)" xlink:href="#O"/>
                    <use fill="#00CFC0" xlink:href="#O"/>
                </g>
                <path fill="#FFF" d="M817.315 89.858l-3.182-3.417a.506.506 0 0 1 0-.684l.643-.683a.437.437 0 0 1 .642 0l2.219 2.392 4.944-5.325a.437.437 0 0 1 .643 0l.643.684a.504.504 0 0 1 0 .682l-5.91 6.351a.437.437 0 0 1-.642 0"/>
                <text fill="#637381" font-family="OpenSans, Open Sans" font-size="12" transform="translate(811 76)">
                    <tspan x="24" y="13">15 Years</tspan>
                </text>
                <g transform="translate(811 108)">
                    <use fill="#000" filter="url(#P)" xlink:href="#Q"/>
                    <use fill="#23C0F5" xlink:href="#Q"/>
                </g>
                <path fill="#FFF" d="M817.315 119.858l-3.182-3.417a.506.506 0 0 1 0-.684l.643-.683a.437.437 0 0 1 .642 0l2.219 2.392 4.944-5.325a.437.437 0 0 1 .643 0l.643.684a.504.504 0 0 1 0 .682l-5.91 6.351a.437.437 0 0 1-.642 0"/>
                <text fill="#637381" font-family="OpenSans, Open Sans" font-size="12" transform="translate(811 106)">
                    <tspan x="24" y="13">20 Years</tspan>
                </text>
                <g>
                    <g transform="translate(811 138)">
                        <use fill="#000" filter="url(#R)" xlink:href="#S"/>
                        <use fill="#007ACE" xlink:href="#S"/>
                    </g>
                    <path fill="#FFF" d="M817.315 149.858l-3.182-3.417a.506.506 0 0 1 0-.684l.643-.683a.437.437 0 0 1 .642 0l2.219 2.392 4.944-5.325a.437.437 0 0 1 .643 0l.643.685a.504.504 0 0 1 0 .682l-5.91 6.35a.437.437 0 0 1-.642 0"/>
                    <text fill="#637381" font-family="OpenSans, Open Sans" font-size="12" transform="translate(811 136)">
                        <tspan x="24" y="13">30 Years</tspan>
                    </text>
                </g>
                <g>
                    <g transform="translate(811 32)">
                        <use fill="#000" filter="url(#T)" xlink:href="#U"/>
                        <rect width="22" height="22" x="1" y="1" fill="#FFF" stroke="#C4CDD5" stroke-linejoin="square" stroke-width="2" rx="3"/>
                    </g>
                    <path fill="#23C0F5" d="M821.31 48.824l-4.137-4.272a.615.615 0 0 1 0-.855l.835-.854a.583.583 0 0 1 .836 0l2.884 2.99 6.428-6.656a.583.583 0 0 1 .835 0l.836.855c.23.235.23.619 0 .852l-7.682 7.94a.583.583 0 0 1-.836 0"/>
                    <text fill="#47495A" font-family="OpenSans, Open Sans" font-size="14" transform="translate(811 32)">
                        <tspan x="34" y="17">Fixed</tspan>
                    </text>
                </g>
                <g>
                    <g transform="translate(966 78)">
                        <use fill="#000" filter="url(#V)" xlink:href="#W"/>
                        <use fill="#5C6AC4" xlink:href="#W"/>
                    </g>
                    <path fill="#FFF" d="M972.315 89.858l-3.182-3.417a.506.506 0 0 1 0-.684l.643-.683a.437.437 0 0 1 .642 0l2.219 2.392 4.944-5.325a.437.437 0 0 1 .643 0l.643.684a.504.504 0 0 1 0 .682l-5.91 6.351a.437.437 0 0 1-.642 0"/>
                    <text fill="#637381" font-family="OpenSans, Open Sans" font-size="12" transform="translate(966 76)">
                        <tspan x="24" y="13">10/1</tspan>
                    </text>
                    <g>
                        <g transform="translate(966 108)">
                            <use fill="#000" filter="url(#X)" xlink:href="#Y"/>
                            <use fill="#9C6ADE" xlink:href="#Y"/>
                        </g>
                        <path fill="#FFF" d="M972.315 119.858l-3.182-3.417a.506.506 0 0 1 0-.684l.643-.683a.437.437 0 0 1 .642 0l2.219 2.392 4.944-5.325a.437.437 0 0 1 .643 0l.643.684a.504.504 0 0 1 0 .682l-5.91 6.351a.437.437 0 0 1-.642 0"/>
                        <text fill="#637381" font-family="OpenSans, Open Sans" font-size="12" transform="translate(966 106)">
                            <tspan x="24" y="13">7/1</tspan>
                        </text>
                    </g>
                    <g>
                        <g transform="translate(966 138)">
                            <use fill="#000" filter="url(#Z)" xlink:href="#aa"/>
                            <use fill="#DE6A93" xlink:href="#aa"/>
                        </g>
                        <path fill="#FFF" d="M972.315 149.858l-3.182-3.417a.506.506 0 0 1 0-.684l.643-.683a.437.437 0 0 1 .642 0l2.219 2.392 4.944-5.325a.437.437 0 0 1 .643 0l.643.685a.504.504 0 0 1 0 .682l-5.91 6.35a.437.437 0 0 1-.642 0"/>
                        <text fill="#637381" font-family="OpenSans, Open Sans" font-size="12" transform="translate(966 136)">
                            <tspan x="24" y="13">5/1</tspan>
                        </text>
                    </g>
                    <g>
                        <g transform="translate(966 32)">
                            <use fill="#000" filter="url(#ab)" xlink:href="#ac"/>
                            <rect width="22" height="22" x="1" y="1" fill="#FFF" stroke="#C4CDD5" stroke-linejoin="square" stroke-width="2" rx="3"/>
                        </g>
                        <path fill="#23C0F5" d="M976.31 48.824l-4.137-4.272a.615.615 0 0 1 0-.855l.835-.854a.583.583 0 0 1 .836 0l2.884 2.99 6.428-6.656a.583.583 0 0 1 .835 0l.836.855c.23.235.23.619 0 .852l-7.682 7.94a.583.583 0 0 1-.836 0"/>
                        <text fill="#47495A" font-family="OpenSans, Open Sans" font-size="14" transform="translate(966 32)">
                            <tspan x="34" y="17">Adjustable</tspan>
                        </text>
                    </g>
                </g>
                <path fill="#DFE3E8" d="M1085 184v2H806v-2z"/>
            </g>
        </g>
    </g>
</svg>
