<svg version="1.1" id="Layer_1" xmlns="http://www.w3.org/2000/svg" xmlns:xlink="http://www.w3.org/1999/xlink" x="0px" y="0px"
	 width="100%" viewBox="0 0 54 54" enable-background="new 0 0 54 54" xml:space="preserve">
<path fill="#4AD5F6" opacity="1.000000" stroke="none" 
	d="
M1.000000,37.000000 
	C1.000000,31.977907 1.000000,26.955816 1.281253,21.799393 
	C1.944105,21.351168 2.545497,21.109165 2.675121,20.712856 
	C5.822620,11.089698 12.291454,5.155836 22.167046,2.863093 
	C22.567305,2.770168 22.727797,1.644500 23.000000,1.000000 
	C25.700014,1.000000 28.400026,1.000000 31.215225,1.300632 
	C31.662424,1.969495 31.945087,2.593697 32.333652,2.668615 
	C42.734043,4.673884 49.705669,10.615688 53.259159,20.614779 
	C53.364746,20.911880 54.398827,20.879019 55.000000,21.000000 
	C55.000000,26.022093 55.000000,31.044184 54.735046,36.203102 
	C54.010750,36.779171 53.346779,37.133202 53.123035,37.670544 
	C50.175285,44.749783 45.705509,50.339554 38.354496,53.260483 
	C38.053459,53.380100 38.110035,54.399700 38.000000,55.000000 
	C31.645601,55.000000 25.291204,55.000000 18.797276,54.737717 
	C11.460884,50.312927 5.454767,45.048061 2.375905,37.027187 
	C2.313972,36.865845 1.475948,37.002415 1.000000,37.000000 
M31.374916,18.912235 
	C34.551594,21.897202 32.935989,23.888002 30.187208,26.052101 
	C27.716946,27.996923 25.617556,30.412823 23.354570,32.620926 
	C26.620687,33.785301 29.699739,34.725811 31.290787,33.587147 
	C34.484310,31.301634 37.115208,28.061876 39.453037,24.835361 
	C40.331406,23.623096 40.159069,21.255213 39.755577,19.585825 
	C38.734291,15.360395 33.199604,11.988975 27.913818,12.000022 
	C22.629562,12.011065 18.795433,14.771829 17.332853,19.574945 
	C18.669426,20.431526 19.982616,21.273123 21.295807,22.114719 
	C21.248262,21.553728 21.200718,20.992737 21.153173,20.431746 
	C24.378819,19.722132 27.604462,19.012518 31.374916,18.912235 
M24.928057,39.611042 
	C25.059347,41.639736 25.190638,43.668427 25.321926,45.697121 
	C27.182276,45.575096 29.645882,46.116890 30.725510,45.135765 
	C31.714233,44.237240 31.987057,40.756493 31.183275,40.088425 
	C29.884043,39.008553 27.443619,39.301685 24.928057,39.611042 
z"/>
<path fill="#000000" opacity="1.000000" stroke="none" 
	d="
M55.000000,20.530958 
	C54.398827,20.879019 53.364746,20.911880 53.259159,20.614779 
	C49.705669,10.615688 42.734043,4.673884 32.333652,2.668615 
	C31.945087,2.593697 31.662424,1.969495 31.665205,1.300632 
	C39.587639,1.000000 47.175278,1.000000 55.000000,1.000000 
	C55.000000,7.352017 55.000000,13.706965 55.000000,20.530958 
z"/>
<path fill="#000000" opacity="1.000000" stroke="none" 
	d="
M22.531216,1.000000 
	C22.727797,1.644500 22.567305,2.770168 22.167046,2.863093 
	C12.291454,5.155836 5.822620,11.089698 2.675121,20.712856 
	C2.545497,21.109165 1.944105,21.351168 1.281253,21.332531 
	C1.000000,14.403625 1.000000,7.807250 1.000000,1.000000 
	C8.019411,1.000000 15.040923,1.000000 22.531216,1.000000 
z"/>
<path fill="#000000" opacity="1.000000" stroke="none" 
	d="
M1.000000,37.469711 
	C1.475948,37.002415 2.313972,36.865845 2.375905,37.027187 
	C5.454767,45.048061 11.460884,50.312927 18.328873,54.737717 
	C12.405508,55.000000 6.811017,55.000000 1.000000,55.000000 
	C1.000000,49.314404 1.000000,43.626911 1.000000,37.469711 
z"/>
<path fill="#000000" opacity="1.000000" stroke="none" 
	d="
M38.470451,55.000000 
	C38.110035,54.399700 38.053459,53.380100 38.354496,53.260483 
	C45.705509,50.339554 50.175285,44.749783 53.123035,37.670544 
	C53.346779,37.133202 54.010750,36.779171 54.735046,36.669968 
	C55.000000,42.923321 55.000000,48.846642 55.000000,55.000000 
	C49.649143,55.000000 44.295025,55.000000 38.470451,55.000000 
z"/>
<path fill="#000000" opacity="1.000000" stroke="none" 
	d="
M31.102512,18.607571 
	C27.604462,19.012518 24.378819,19.722132 21.153173,20.431746 
	C21.200718,20.992737 21.248262,21.553728 21.295807,22.114719 
	C19.982616,21.273123 18.669426,20.431526 17.332853,19.574945 
	C18.795433,14.771829 22.629562,12.011065 27.913818,12.000022 
	C33.199604,11.988975 38.734291,15.360395 39.755577,19.585825 
	C40.159069,21.255213 40.331406,23.623096 39.453037,24.835361 
	C37.115208,28.061876 34.484310,31.301634 31.290787,33.587147 
	C29.699739,34.725811 26.620687,33.785301 23.354570,32.620926 
	C25.617556,30.412823 27.716946,27.996923 30.187208,26.052101 
	C32.935989,23.888002 34.551594,21.897202 31.102512,18.607571 
z"/>
<path fill="#000000" opacity="1.000000" stroke="none" 
	d="
M25.206594,39.313015 
	C27.443619,39.301685 29.884043,39.008553 31.183275,40.088425 
	C31.987057,40.756493 31.714233,44.237240 30.725510,45.135765 
	C29.645882,46.116890 27.182276,45.575096 25.321926,45.697121 
	C25.190638,43.668427 25.059347,41.639736 25.206594,39.313015 
z"/>
</svg>