<svg version="1.1" id="Layer_1" xmlns="http://www.w3.org/2000/svg" xmlns:xlink="http://www.w3.org/1999/xlink" x="0px" y="0px"
	 width="100%" viewBox="0 0 256 256" enable-background="new 0 0 256 256" xml:space="preserve">
<path fill="#000000" opacity="1.000000" stroke="none" 
	d="
M58.000000,257.000000 
	C39.020042,257.000000 20.040085,257.000000 1.030064,257.000000 
	C1.030064,171.776733 1.030064,86.553459 1.030064,1.000000 
	C34.686840,1.000000 68.374763,1.000000 102.660851,1.347175 
	C91.251701,8.565450 86.861626,19.152744 89.291946,33.000084 
	C73.756355,33.000084 59.297665,32.997612 44.838970,33.000835 
	C32.392532,33.003613 25.001358,40.469990 25.000114,53.033581 
	C24.999653,57.696484 24.996599,62.359386 25.000916,67.022285 
	C25.008581,75.305550 26.648537,76.993378 34.735058,76.997635 
	C48.723755,77.004997 62.712463,77.000031 76.701164,76.999977 
	C125.828156,76.999802 174.955154,77.004021 224.082138,76.994141 
	C231.007965,76.992744 232.942490,75.201759 232.989624,68.761826 
	C233.032288,62.933514 233.013382,57.104603 232.996277,51.276028 
	C232.966675,41.183426 224.863129,33.011311 214.884018,33.002026 
	C206.390869,32.994122 197.897736,33.000099 189.404587,33.000011 
	C182.797028,32.999947 176.189484,33.000000 169.000000,33.000000 
	C169.000000,30.069933 168.851730,27.774120 169.026993,25.503279 
	C169.619263,17.829607 166.957672,11.585349 161.128418,6.604541 
	C159.025009,4.807284 157.039368,2.872198 155.000000,1.000001 
	C188.964127,1.000000 222.928238,1.000000 256.939148,1.000000 
	C256.939148,86.333336 256.939148,171.666672 256.939148,257.000000 
	C238.231308,257.000000 219.584305,257.000000 200.335709,256.655945 
	C206.228867,252.039474 211.741302,246.873978 213.434708,238.946442 
	C214.358688,234.620911 214.724396,230.137894 214.942535,225.706238 
	C216.033981,203.531342 217.046402,181.352142 217.976669,159.169846 
	C218.442535,148.060852 218.526093,136.934921 219.058426,125.829872 
	C219.477570,117.086029 220.280273,108.359291 220.986877,99.630966 
	C221.460709,93.777817 220.831268,93.006149 214.869263,93.005341 
	C157.714050,92.997574 100.558830,92.998199 43.403618,93.003906 
	C37.086613,93.004539 36.412025,94.043365 36.997799,100.361954 
	C37.851952,109.575531 38.445938,118.816643 38.976139,128.056030 
	C39.725807,141.119965 40.348263,154.191498 40.967316,167.262527 
	C42.002083,189.111221 43.125767,210.957123 43.934273,232.814453 
	C44.265194,241.760712 47.487751,248.774384 55.092075,253.705460 
	C56.275772,254.473022 57.041172,255.885666 58.000000,257.000000 
z"/>
<path fill="#616161" opacity="1.000000" stroke="none" 
	d="
M58.468658,257.000000 
	C57.041172,255.885666 56.275772,254.473022 55.092075,253.705460 
	C47.487751,248.774384 44.265194,241.760712 43.934273,232.814453 
	C43.125767,210.957123 42.002083,189.111221 40.967316,167.262527 
	C40.348263,154.191498 39.725807,141.119965 38.976139,128.056030 
	C38.445938,118.816643 37.851952,109.575531 36.997799,100.361954 
	C36.412025,94.043365 37.086613,93.004539 43.403618,93.003906 
	C100.558830,92.998199 157.714050,92.997574 214.869263,93.005341 
	C220.831268,93.006149 221.460709,93.777817 220.986877,99.630966 
	C220.280273,108.359291 219.477570,117.086029 219.058426,125.829872 
	C218.526093,136.934921 218.442535,148.060852 217.976669,159.169846 
	C217.046402,181.352142 216.033981,203.531342 214.942535,225.706238 
	C214.724396,230.137894 214.358688,234.620911 213.434708,238.946442 
	C211.741302,246.873978 206.228867,252.039474 199.867050,256.655945 
	C152.979111,257.000000 105.958214,257.000000 58.468658,257.000000 
M97.000000,157.500000 
	C96.999657,144.185669 97.080231,130.870422 96.928574,117.557800 
	C96.899323,114.990211 96.594925,112.011887 95.255653,109.994209 
	C94.017326,108.128601 91.235573,106.319611 89.106903,106.288139 
	C87.025581,106.257370 84.254936,108.048599 82.987206,109.873779 
	C81.605743,111.862701 81.089241,114.808334 81.079750,117.340210 
	C80.960518,149.127701 80.970810,180.915894 81.063026,212.703552 
	C81.070007,215.111877 81.329063,217.940598 82.598846,219.806198 
	C83.879646,221.687973 86.577332,223.689682 88.634399,223.668991 
	C90.918793,223.645981 93.949364,221.910828 95.245918,219.976562 
	C96.668617,217.854126 96.909737,214.657364 96.930412,211.923187 
	C97.065071,194.116287 96.999832,176.307907 97.000000,157.500000 
M121.000000,174.500000 
	C121.001434,187.481461 120.922035,200.463623 121.035362,213.444107 
	C121.100822,220.942902 124.653419,224.764587 130.376129,223.942825 
	C134.578354,223.339386 136.982605,219.358673 136.987762,212.680893 
	C137.012207,181.059402 137.008987,149.437881 136.992432,117.816368 
	C136.988297,109.922340 134.197769,105.926598 128.871094,106.010094 
	C123.758919,106.090233 121.012245,110.263680 121.005562,118.079140 
	C120.989769,136.552734 121.000175,155.026382 121.000000,174.500000 
M161.000000,122.564774 
	C161.000000,148.530319 160.999634,174.495850 161.000336,200.461395 
	C161.000458,204.955429 160.875397,209.454147 161.037384,213.942413 
	C161.290848,220.964874 164.441940,224.424591 169.878662,223.955124 
	C174.470566,223.558609 176.981552,219.686127 176.987259,212.677963 
	C177.013107,180.886826 177.023544,149.095596 176.945419,117.304626 
	C176.939880,115.047508 176.810211,112.337372 175.601669,110.653732 
	C174.160477,108.645996 171.475143,106.304543 169.360916,106.335030 
	C167.019257,106.368797 163.563934,108.416519 162.655807,110.490303 
	C161.207443,113.797775 161.464233,117.851936 161.000000,122.564774 
z"/>
<path fill="#616161" opacity="1.000000" stroke="none" 
	d="
M154.531342,1.000001 
	C157.039368,2.872198 159.025009,4.807284 161.128418,6.604541 
	C166.957672,11.585349 169.619263,17.829607 169.026993,25.503279 
	C168.851730,27.774120 169.000000,30.069933 169.000000,33.000000 
	C176.189484,33.000000 182.797028,32.999947 189.404587,33.000011 
	C197.897736,33.000099 206.390869,32.994122 214.884018,33.002026 
	C224.863129,33.011311 232.966675,41.183426 232.996277,51.276028 
	C233.013382,57.104603 233.032288,62.933514 232.989624,68.761826 
	C232.942490,75.201759 231.007965,76.992744 224.082138,76.994141 
	C174.955154,77.004021 125.828156,76.999802 76.701164,76.999977 
	C62.712463,77.000031 48.723755,77.004997 34.735058,76.997635 
	C26.648537,76.993378 25.008581,75.305550 25.000916,67.022285 
	C24.996599,62.359386 24.999653,57.696484 25.000114,53.033581 
	C25.001358,40.469990 32.392532,33.003613 44.838970,33.000835 
	C59.297665,32.997612 73.756355,33.000084 89.291946,33.000084 
	C86.861626,19.152744 91.251701,8.565450 103.129509,1.347175 
	C120.020897,1.000000 137.041794,1.000000 154.531342,1.000001 
M147.035660,18.082466 
	C144.437073,17.721703 141.843842,17.103947 139.238876,17.049789 
	C132.249344,16.904476 125.254791,16.987171 118.262283,17.003487 
	C107.709412,17.028107 103.777428,21.774307 105.575760,32.612221 
	C121.225250,32.612221 136.918304,32.612221 152.906128,32.612221 
	C152.928513,26.935007 153.537994,21.545038 147.035660,18.082466 
z"/>
<path fill="#000000" opacity="1.000000" stroke="none" 
	d="
M97.000000,158.000000 
	C96.999832,176.307907 97.065071,194.116287 96.930412,211.923187 
	C96.909737,214.657364 96.668617,217.854126 95.245918,219.976562 
	C93.949364,221.910828 90.918793,223.645981 88.634399,223.668991 
	C86.577332,223.689682 83.879646,221.687973 82.598846,219.806198 
	C81.329063,217.940598 81.070007,215.111877 81.063026,212.703552 
	C80.970810,180.915894 80.960518,149.127701 81.079750,117.340210 
	C81.089241,114.808334 81.605743,111.862701 82.987206,109.873779 
	C84.254936,108.048599 87.025581,106.257370 89.106903,106.288139 
	C91.235573,106.319611 94.017326,108.128601 95.255653,109.994209 
	C96.594925,112.011887 96.899323,114.990211 96.928574,117.557800 
	C97.080231,130.870422 96.999657,144.185669 97.000000,158.000000 
z"/>
<path fill="#000000" opacity="1.000000" stroke="none" 
	d="
M121.000000,174.000000 
	C121.000175,155.026382 120.989769,136.552734 121.005562,118.079140 
	C121.012245,110.263680 123.758919,106.090233 128.871094,106.010094 
	C134.197769,105.926598 136.988297,109.922340 136.992432,117.816368 
	C137.008987,149.437881 137.012207,181.059402 136.987762,212.680893 
	C136.982605,219.358673 134.578354,223.339386 130.376129,223.942825 
	C124.653419,224.764587 121.100822,220.942902 121.035362,213.444107 
	C120.922035,200.463623 121.001434,187.481461 121.000000,174.000000 
z"/>
<path fill="#000000" opacity="1.000000" stroke="none" 
	d="
M161.000000,122.077568 
	C161.464233,117.851936 161.207443,113.797775 162.655807,110.490303 
	C163.563934,108.416519 167.019257,106.368797 169.360916,106.335030 
	C171.475143,106.304543 174.160477,108.645996 175.601669,110.653732 
	C176.810211,112.337372 176.939880,115.047508 176.945419,117.304626 
	C177.023544,149.095596 177.013107,180.886826 176.987259,212.677963 
	C176.981552,219.686127 174.470566,223.558609 169.878662,223.955124 
	C164.441940,224.424591 161.290848,220.964874 161.037384,213.942413 
	C160.875397,209.454147 161.000458,204.955429 161.000336,200.461395 
	C160.999634,174.495850 161.000000,148.530319 161.000000,122.077568 
z"/>
<path fill="#000000" opacity="1.000000" stroke="none" 
	d="
M147.421814,18.215647 
	C153.537994,21.545038 152.928513,26.935007 152.906128,32.612221 
	C136.918304,32.612221 121.225250,32.612221 105.575760,32.612221 
	C103.777428,21.774307 107.709412,17.028107 118.262283,17.003487 
	C125.254791,16.987171 132.249344,16.904476 139.238876,17.049789 
	C141.843842,17.103947 144.437073,17.721703 147.421814,18.215647 
z"/>
</svg>